<?xml version="1.0" encoding="UTF-8" standalone="no"?>
<!DOCTYPE svg PUBLIC "-//W3C//DTD SVG 1.1//EN"
 "http://www.w3.org/Graphics/SVG/1.1/DTD/svg11.dtd">
<!-- Generated by graphviz version 2.38.0 (20140413.2041)
 -->
<!-- Title: snakemake_dag Pages: 1 -->
<svg width="382pt" height="836pt"
 viewBox="0.00 0.00 382.00 836.00" xmlns="http://www.w3.org/2000/svg" xmlns:xlink="http://www.w3.org/1999/xlink">
<g id="graph0" class="graph" transform="scale(1 1) rotate(0) translate(4 832)">
<title>snakemake_dag</title>
<polygon fill="white" stroke="none" points="-4,4 -4,-832 378,-832 378,4 -4,4"/>
<!-- 0 -->
<g id="node1" class="node"><title>0</title>
<path fill="none" stroke="#56d8d0" stroke-width="2" d="M235.5,-36C235.5,-36 205.5,-36 205.5,-36 199.5,-36 193.5,-30 193.5,-24 193.5,-24 193.5,-12 193.5,-12 193.5,-6 199.5,-0 205.5,-0 205.5,-0 235.5,-0 235.5,-0 241.5,-0 247.5,-6 247.5,-12 247.5,-12 247.5,-24 247.5,-24 247.5,-30 241.5,-36 235.5,-36"/>
<text text-anchor="middle" x="220.5" y="-15.5" font-family="sans" font-size="10.00">all</text>
</g>
<!-- 1 -->
<g id="node2" class="node"><title>1</title>
<path fill="none" stroke="#5673d8" stroke-width="2" d="M343,-396C343,-396 278,-396 278,-396 272,-396 266,-390 266,-384 266,-384 266,-372 266,-372 266,-366 272,-360 278,-360 278,-360 343,-360 343,-360 349,-360 355,-366 355,-372 355,-372 355,-384 355,-384 355,-390 349,-396 343,-396"/>
<text text-anchor="middle" x="310.5" y="-375.5" font-family="sans" font-size="10.00">classify_report</text>
</g>
<!-- 1&#45;&gt;0 -->
<g id="edge4" class="edge"><title>1&#45;&gt;0</title>
<path fill="none" stroke="grey" stroke-width="2" d="M310.5,-359.951C310.5,-333.292 310.5,-280.115 310.5,-235 310.5,-235 310.5,-235 310.5,-161 310.5,-113.714 274.456,-69.4078 247.988,-43.2473"/>
<polygon fill="grey" stroke="grey" stroke-width="2" points="250.115,-40.4379 240.474,-36.0452 245.272,-45.4915 250.115,-40.4379"/>
</g>
<!-- 2 -->
<g id="node3" class="node"><title>2</title>
<path fill="none" stroke="#d88d56" stroke-width="2" d="M270.5,-252C270.5,-252 210.5,-252 210.5,-252 204.5,-252 198.5,-246 198.5,-240 198.5,-240 198.5,-228 198.5,-228 198.5,-222 204.5,-216 210.5,-216 210.5,-216 270.5,-216 270.5,-216 276.5,-216 282.5,-222 282.5,-228 282.5,-228 282.5,-240 282.5,-240 282.5,-246 276.5,-252 270.5,-252"/>
<text text-anchor="middle" x="240.5" y="-231.5" font-family="sans" font-size="10.00">cluster_report</text>
</g>
<!-- 2&#45;&gt;0 -->
<g id="edge2" class="edge"><title>2&#45;&gt;0</title>
<path fill="none" stroke="grey" stroke-width="2" d="M238.897,-215.849C235.438,-178.832 227.246,-91.1809 223.059,-46.3863"/>
<polygon fill="grey" stroke="grey" stroke-width="2" points="226.526,-45.8633 222.111,-36.2325 219.556,-46.5148 226.526,-45.8633"/>
</g>
<!-- 3 -->
<g id="node4" class="node"><title>3</title>
<path fill="none" stroke="#d8ac56" stroke-width="2" d="M185,-180C185,-180 104,-180 104,-180 98,-180 92,-174 92,-168 92,-168 92,-156 92,-156 92,-150 98,-144 104,-144 104,-144 185,-144 185,-144 191,-144 197,-150 197,-156 197,-156 197,-168 197,-168 197,-174 191,-180 185,-180"/>
<text text-anchor="middle" x="144.5" y="-159.5" font-family="sans" font-size="10.00">collapse_isoforms</text>
</g>
<!-- 3&#45;&gt;0 -->
<g id="edge3" class="edge"><title>3&#45;&gt;0</title>
<path fill="none" stroke="grey" stroke-width="2" d="M157.291,-143.822C164.555,-133.679 173.555,-120.429 180.5,-108 191.864,-87.6613 202.562,-63.4888 210.031,-45.4719"/>
<polygon fill="grey" stroke="grey" stroke-width="2" points="213.293,-46.7404 213.831,-36.1592 206.812,-44.0955 213.293,-46.7404"/>
</g>
<!-- 4 -->
<g id="node5" class="node"><title>4</title>
<path fill="none" stroke="#d87556" stroke-width="2" d="M159.5,-108C159.5,-108 129.5,-108 129.5,-108 123.5,-108 117.5,-102 117.5,-96 117.5,-96 117.5,-84 117.5,-84 117.5,-78 123.5,-72 129.5,-72 129.5,-72 159.5,-72 159.5,-72 165.5,-72 171.5,-78 171.5,-84 171.5,-84 171.5,-96 171.5,-96 171.5,-102 165.5,-108 159.5,-108"/>
<text text-anchor="middle" x="144.5" y="-87.5" font-family="sans" font-size="10.00">sqanti</text>
</g>
<!-- 3&#45;&gt;4 -->
<g id="edge10" class="edge"><title>3&#45;&gt;4</title>
<path fill="none" stroke="grey" stroke-width="2" d="M144.5,-143.697C144.5,-135.983 144.5,-126.712 144.5,-118.112"/>
<polygon fill="grey" stroke="grey" stroke-width="2" points="148,-118.104 144.5,-108.104 141,-118.104 148,-118.104"/>
</g>
<!-- 4&#45;&gt;0 -->
<g id="edge1" class="edge"><title>4&#45;&gt;0</title>
<path fill="none" stroke="grey" stroke-width="2" d="M163.287,-71.6966C172.674,-63.0503 184.184,-52.4486 194.413,-43.027"/>
<polygon fill="grey" stroke="grey" stroke-width="2" points="196.945,-45.4535 201.93,-36.1043 192.203,-40.3047 196.945,-45.4535"/>
</g>
<!-- 5 -->
<g id="node6" class="node"><title>5</title>
<path fill="none" stroke="#56d863" stroke-width="2" d="M362,-540C362,-540 311,-540 311,-540 305,-540 299,-534 299,-528 299,-528 299,-516 299,-516 299,-510 305,-504 311,-504 311,-504 362,-504 362,-504 368,-504 374,-510 374,-516 374,-516 374,-528 374,-528 374,-534 368,-540 362,-540"/>
<text text-anchor="middle" x="336.5" y="-519.5" font-family="sans" font-size="10.00">merge_lima</text>
</g>
<!-- 5&#45;&gt;1 -->
<g id="edge5" class="edge"><title>5&#45;&gt;1</title>
<path fill="none" stroke="grey" stroke-width="2" d="M333.364,-503.871C328.933,-479.67 320.792,-435.211 315.516,-406.393"/>
<polygon fill="grey" stroke="grey" stroke-width="2" points="318.891,-405.395 313.647,-396.189 312.006,-406.656 318.891,-405.395"/>
</g>
<!-- 6 -->
<g id="node7" class="node"><title>6</title>
<path fill="none" stroke="#80d856" stroke-width="2" d="M272.5,-468C272.5,-468 204.5,-468 204.5,-468 198.5,-468 192.5,-462 192.5,-456 192.5,-456 192.5,-444 192.5,-444 192.5,-438 198.5,-432 204.5,-432 204.5,-432 272.5,-432 272.5,-432 278.5,-432 284.5,-438 284.5,-444 284.5,-444 284.5,-456 284.5,-456 284.5,-462 278.5,-468 272.5,-468"/>
<text text-anchor="middle" x="238.5" y="-447.5" font-family="sans" font-size="10.00">isoseq3_cluster</text>
</g>
<!-- 6&#45;&gt;1 -->
<g id="edge6" class="edge"><title>6&#45;&gt;1</title>
<path fill="none" stroke="grey" stroke-width="2" d="M256.298,-431.697C265.104,-423.135 275.882,-412.656 285.501,-403.304"/>
<polygon fill="grey" stroke="grey" stroke-width="2" points="288.177,-405.585 292.907,-396.104 283.297,-400.566 288.177,-405.585"/>
</g>
<!-- 7 -->
<g id="node8" class="node"><title>7</title>
<path fill="none" stroke="#ced856" stroke-width="2" d="M223,-396C223,-396 158,-396 158,-396 152,-396 146,-390 146,-384 146,-384 146,-372 146,-372 146,-366 152,-360 158,-360 158,-360 223,-360 223,-360 229,-360 235,-366 235,-372 235,-372 235,-384 235,-384 235,-390 229,-396 223,-396"/>
<text text-anchor="middle" x="190.5" y="-375.5" font-family="sans" font-size="10.00">isoseq3_polish</text>
</g>
<!-- 6&#45;&gt;7 -->
<g id="edge15" class="edge"><title>6&#45;&gt;7</title>
<path fill="none" stroke="grey" stroke-width="2" d="M226.635,-431.697C220.997,-423.474 214.146,-413.483 207.931,-404.421"/>
<polygon fill="grey" stroke="grey" stroke-width="2" points="210.771,-402.372 202.229,-396.104 204.997,-406.331 210.771,-402.372"/>
</g>
<!-- 7&#45;&gt;2 -->
<g id="edge7" class="edge"><title>7&#45;&gt;2</title>
<path fill="none" stroke="grey" stroke-width="2" d="M212.078,-359.736C222.094,-350.349 232.985,-337.839 238.5,-324 246.307,-304.409 246.359,-280.417 244.706,-262.282"/>
<polygon fill="grey" stroke="grey" stroke-width="2" points="248.156,-261.638 243.546,-252.099 241.201,-262.431 248.156,-261.638"/>
</g>
<!-- 8 -->
<g id="node9" class="node"><title>8</title>
<path fill="none" stroke="#56d882" stroke-width="2" d="M67,-252C67,-252 12,-252 12,-252 6,-252 7.10543e-15,-246 7.10543e-15,-240 7.10543e-15,-240 7.10543e-15,-228 7.10543e-15,-228 7.10543e-15,-222 6,-216 12,-216 12,-216 67,-216 67,-216 73,-216 79,-222 79,-228 79,-228 79,-240 79,-240 79,-246 73,-252 67,-252"/>
<text text-anchor="middle" x="39.5" y="-231.5" font-family="sans" font-size="10.00">gunzip_fastq</text>
</g>
<!-- 7&#45;&gt;8 -->
<g id="edge16" class="edge"><title>7&#45;&gt;8</title>
<path fill="none" stroke="grey" stroke-width="2" d="M145.765,-372.384C113.778,-366.587 72.4748,-353.507 49.5,-324 36.0222,-306.69 34.3633,-281.426 35.5894,-262.233"/>
<polygon fill="grey" stroke="grey" stroke-width="2" points="39.0987,-262.295 36.5437,-252.013 32.1291,-261.645 39.0987,-262.295"/>
</g>
<!-- 14 -->
<g id="node15" class="node"><title>14</title>
<path fill="none" stroke="#b6d856" stroke-width="2" d="M218,-324C218,-324 163,-324 163,-324 157,-324 151,-318 151,-312 151,-312 151,-300 151,-300 151,-294 157,-288 163,-288 163,-288 218,-288 218,-288 224,-288 230,-294 230,-300 230,-300 230,-312 230,-312 230,-318 224,-324 218,-324"/>
<text text-anchor="middle" x="190.5" y="-303.5" font-family="sans" font-size="10.00">gunzip_fasta</text>
</g>
<!-- 7&#45;&gt;14 -->
<g id="edge22" class="edge"><title>7&#45;&gt;14</title>
<path fill="none" stroke="grey" stroke-width="2" d="M190.5,-359.697C190.5,-351.983 190.5,-342.712 190.5,-334.112"/>
<polygon fill="grey" stroke="grey" stroke-width="2" points="194,-334.104 190.5,-324.104 187,-334.104 194,-334.104"/>
</g>
<!-- 8&#45;&gt;3 -->
<g id="edge9" class="edge"><title>8&#45;&gt;3</title>
<path fill="none" stroke="grey" stroke-width="2" d="M65.1859,-215.876C78.7875,-206.808 95.6715,-195.552 110.361,-185.759"/>
<polygon fill="grey" stroke="grey" stroke-width="2" points="112.336,-188.649 118.715,-180.19 108.453,-182.825 112.336,-188.649"/>
</g>
<!-- 9 -->
<g id="node10" class="node"><title>9</title>
<path fill="none" stroke="#56c1d8" stroke-width="2" d="M168.5,-252C168.5,-252 118.5,-252 118.5,-252 112.5,-252 106.5,-246 106.5,-240 106.5,-240 106.5,-228 106.5,-228 106.5,-222 112.5,-216 118.5,-216 118.5,-216 168.5,-216 168.5,-216 174.5,-216 180.5,-222 180.5,-228 180.5,-228 180.5,-240 180.5,-240 180.5,-246 174.5,-252 168.5,-252"/>
<text text-anchor="middle" x="143.5" y="-231.5" font-family="sans" font-size="10.00">gmap_align</text>
</g>
<!-- 9&#45;&gt;3 -->
<g id="edge8" class="edge"><title>9&#45;&gt;3</title>
<path fill="none" stroke="grey" stroke-width="2" d="M143.747,-215.697C143.857,-207.983 143.99,-198.712 144.113,-190.112"/>
<polygon fill="grey" stroke="grey" stroke-width="2" points="147.612,-190.153 144.256,-180.104 140.613,-190.053 147.612,-190.153"/>
</g>
<!-- 10 -->
<g id="node11" class="node"><title>10</title>
<path fill="none" stroke="#56d89a" stroke-width="2" d="M62,-180C62,-180 21,-180 21,-180 15,-180 9,-174 9,-168 9,-168 9,-156 9,-156 9,-150 15,-144 21,-144 21,-144 62,-144 62,-144 68,-144 74,-150 74,-156 74,-156 74,-168 74,-168 74,-174 68,-180 62,-180"/>
<text text-anchor="middle" x="41.5" y="-159.5" font-family="sans" font-size="10.00">sqanti_ref</text>
</g>
<!-- 10&#45;&gt;4 -->
<g id="edge11" class="edge"><title>10&#45;&gt;4</title>
<path fill="none" stroke="grey" stroke-width="2" d="M66.6966,-143.876C79.9145,-134.893 96.2923,-123.763 110.607,-114.034"/>
<polygon fill="grey" stroke="grey" stroke-width="2" points="112.903,-116.705 119.207,-108.19 108.968,-110.916 112.903,-116.705"/>
</g>
<!-- 11 -->
<g id="node12" class="node"><title>11</title>
<path fill="none" stroke="#568ad8" stroke-width="2" d="M273.5,-684C273.5,-684 243.5,-684 243.5,-684 237.5,-684 231.5,-678 231.5,-672 231.5,-672 231.5,-660 231.5,-660 231.5,-654 237.5,-648 243.5,-648 243.5,-648 273.5,-648 273.5,-648 279.5,-648 285.5,-654 285.5,-660 285.5,-660 285.5,-672 285.5,-672 285.5,-678 279.5,-684 273.5,-684"/>
<text text-anchor="middle" x="258.5" y="-663.5" font-family="sans" font-size="10.00">lima</text>
</g>
<!-- 11&#45;&gt;5 -->
<g id="edge12" class="edge"><title>11&#45;&gt;5</title>
<path fill="none" stroke="grey" stroke-width="2" d="M275.134,-647.943C284.119,-638.052 294.897,-625.009 302.5,-612 313.995,-592.331 322.963,-568.064 328.796,-549.84"/>
<polygon fill="grey" stroke="grey" stroke-width="2" points="332.182,-550.735 331.786,-540.147 325.493,-548.671 332.182,-550.735"/>
</g>
<!-- 17 -->
<g id="node18" class="node"><title>17</title>
<path fill="none" stroke="#97d856" stroke-width="2" d="M282,-612C282,-612 215,-612 215,-612 209,-612 203,-606 203,-600 203,-600 203,-588 203,-588 203,-582 209,-576 215,-576 215,-576 282,-576 282,-576 288,-576 294,-582 294,-588 294,-588 294,-600 294,-600 294,-606 288,-612 282,-612"/>
<text text-anchor="middle" x="248.5" y="-591.5" font-family="sans" font-size="10.00">isoseq3_merge</text>
</g>
<!-- 11&#45;&gt;17 -->
<g id="edge24" class="edge"><title>11&#45;&gt;17</title>
<path fill="none" stroke="grey" stroke-width="2" d="M256.028,-647.697C254.926,-639.983 253.602,-630.712 252.373,-622.112"/>
<polygon fill="grey" stroke="grey" stroke-width="2" points="255.823,-621.509 250.943,-612.104 248.893,-622.499 255.823,-621.509"/>
</g>
<!-- 12 -->
<g id="node13" class="node"><title>12</title>
<path fill="none" stroke="#d8c356" stroke-width="2" d="M269,-540C269,-540 206,-540 206,-540 200,-540 194,-534 194,-528 194,-528 194,-516 194,-516 194,-510 200,-504 206,-504 206,-504 269,-504 269,-504 275,-504 281,-510 281,-516 281,-516 281,-528 281,-528 281,-534 275,-540 269,-540"/>
<text text-anchor="middle" x="237.5" y="-519.5" font-family="sans" font-size="10.00">isoseq3_refine</text>
</g>
<!-- 12&#45;&gt;6 -->
<g id="edge13" class="edge"><title>12&#45;&gt;6</title>
<path fill="none" stroke="grey" stroke-width="2" d="M237.747,-503.697C237.857,-495.983 237.99,-486.712 238.113,-478.112"/>
<polygon fill="grey" stroke="grey" stroke-width="2" points="241.612,-478.153 238.256,-468.104 234.613,-478.053 241.612,-478.153"/>
</g>
<!-- 13 -->
<g id="node14" class="node"><title>13</title>
<path fill="none" stroke="#56a9d8" stroke-width="2" d="M201.5,-684C201.5,-684 127.5,-684 127.5,-684 121.5,-684 115.5,-678 115.5,-672 115.5,-672 115.5,-660 115.5,-660 115.5,-654 121.5,-648 127.5,-648 127.5,-648 201.5,-648 201.5,-648 207.5,-648 213.5,-654 213.5,-660 213.5,-660 213.5,-672 213.5,-672 213.5,-678 207.5,-684 201.5,-684"/>
<text text-anchor="middle" x="164.5" y="-663.5" font-family="sans" font-size="10.00">merge_subreads</text>
</g>
<!-- 13&#45;&gt;7 -->
<g id="edge14" class="edge"><title>13&#45;&gt;7</title>
<path fill="none" stroke="grey" stroke-width="2" d="M165.612,-647.727C168.168,-609.04 174.906,-512.511 183.5,-432 184.4,-423.564 185.55,-414.396 186.657,-406.093"/>
<polygon fill="grey" stroke="grey" stroke-width="2" points="190.128,-406.541 188.013,-396.16 183.192,-405.594 190.128,-406.541"/>
</g>
<!-- 14&#45;&gt;9 -->
<g id="edge18" class="edge"><title>14&#45;&gt;9</title>
<path fill="none" stroke="grey" stroke-width="2" d="M178.882,-287.697C173.361,-279.474 166.653,-269.483 160.568,-260.421"/>
<polygon fill="grey" stroke="grey" stroke-width="2" points="163.465,-258.456 154.984,-252.104 157.653,-262.358 163.465,-258.456"/>
</g>
<!-- 15 -->
<g id="node16" class="node"><title>15</title>
<path fill="none" stroke="#61d856" stroke-width="2" d="M120.5,-324C120.5,-324 70.5,-324 70.5,-324 64.5,-324 58.5,-318 58.5,-312 58.5,-312 58.5,-300 58.5,-300 58.5,-294 64.5,-288 70.5,-288 70.5,-288 120.5,-288 120.5,-288 126.5,-288 132.5,-294 132.5,-300 132.5,-300 132.5,-312 132.5,-312 132.5,-318 126.5,-324 120.5,-324"/>
<text text-anchor="middle" x="95.5" y="-303.5" font-family="sans" font-size="10.00">gmap_build</text>
</g>
<!-- 15&#45;&gt;9 -->
<g id="edge17" class="edge"><title>15&#45;&gt;9</title>
<path fill="none" stroke="grey" stroke-width="2" d="M107.365,-287.697C113.003,-279.474 119.854,-269.483 126.069,-260.421"/>
<polygon fill="grey" stroke="grey" stroke-width="2" points="129.003,-262.331 131.771,-252.104 123.229,-258.372 129.003,-262.331"/>
</g>
<!-- 16 -->
<g id="node17" class="node"><title>16</title>
<path fill="none" stroke="#d85656" stroke-width="2" d="M263.5,-756C263.5,-756 233.5,-756 233.5,-756 227.5,-756 221.5,-750 221.5,-744 221.5,-744 221.5,-732 221.5,-732 221.5,-726 227.5,-720 233.5,-720 233.5,-720 263.5,-720 263.5,-720 269.5,-720 275.5,-726 275.5,-732 275.5,-732 275.5,-744 275.5,-744 275.5,-750 269.5,-756 263.5,-756"/>
<text text-anchor="middle" x="248.5" y="-735.5" font-family="sans" font-size="10.00">ccs</text>
</g>
<!-- 16&#45;&gt;11 -->
<g id="edge19" class="edge"><title>16&#45;&gt;11</title>
<path fill="none" stroke="grey" stroke-width="2" d="M250.972,-719.697C252.074,-711.983 253.398,-702.712 254.627,-694.112"/>
<polygon fill="grey" stroke="grey" stroke-width="2" points="258.107,-694.499 256.057,-684.104 251.177,-693.509 258.107,-694.499"/>
</g>
<!-- 17&#45;&gt;12 -->
<g id="edge20" class="edge"><title>17&#45;&gt;12</title>
<path fill="none" stroke="grey" stroke-width="2" d="M245.781,-575.697C244.569,-567.983 243.112,-558.712 241.761,-550.112"/>
<polygon fill="grey" stroke="grey" stroke-width="2" points="245.198,-549.44 240.188,-540.104 238.283,-550.526 245.198,-549.44"/>
</g>
<!-- 18 -->
<g id="node19" class="node"><title>18</title>
<path fill="none" stroke="#56d8b9" stroke-width="2" d="M230.5,-828C230.5,-828 192.5,-828 192.5,-828 186.5,-828 180.5,-822 180.5,-816 180.5,-816 180.5,-804 180.5,-804 180.5,-798 186.5,-792 192.5,-792 192.5,-792 230.5,-792 230.5,-792 236.5,-792 242.5,-798 242.5,-804 242.5,-804 242.5,-816 242.5,-816 242.5,-822 236.5,-828 230.5,-828"/>
<text text-anchor="middle" x="211.5" y="-807.5" font-family="sans" font-size="10.00">bax2bam</text>
</g>
<!-- 18&#45;&gt;13 -->
<g id="edge21" class="edge"><title>18&#45;&gt;13</title>
<path fill="none" stroke="grey" stroke-width="2" d="M205.831,-791.871C197.785,-767.564 182.975,-722.819 173.441,-694.013"/>
<polygon fill="grey" stroke="grey" stroke-width="2" points="176.654,-692.583 170.189,-684.189 170.009,-694.783 176.654,-692.583"/>
</g>
<!-- 18&#45;&gt;16 -->
<g id="edge23" class="edge"><title>18&#45;&gt;16</title>
<path fill="none" stroke="grey" stroke-width="2" d="M220.646,-791.697C224.903,-783.644 230.056,-773.894 234.766,-764.982"/>
<polygon fill="grey" stroke="grey" stroke-width="2" points="237.88,-766.581 239.459,-756.104 231.692,-763.31 237.88,-766.581"/>
</g>
</g>
</svg>
